<?xml version="1.0" standalone="no"?>
<!DOCTYPE svg PUBLIC "-//W3C//DTD SVG 20010904//EN"
 "http://www.w3.org/TR/2001/REC-SVG-20010904/DTD/svg10.dtd">
<svg version="1.0" xmlns="http://www.w3.org/2000/svg"
 width="811.000000pt" height="667.000000pt" viewBox="0 0 811.000000 667.000000"
 preserveAspectRatio="xMidYMid meet">

<g transform="translate(0.000000,667.000000) scale(0.100000,-0.100000)"
fill="#000000" stroke="none">
<path d="M3795 6663 c-412 -26 -847 -146 -1217 -334 -607 -310 -1100 -802
-1421 -1419 l-60 -114 7 -128 c4 -70 9 -137 11 -150 2 -13 6 -59 9 -103 17
-227 37 -495 40 -535 3 -25 7 -85 11 -135 3 -49 8 -115 10 -145 3 -30 9 -113
15 -185 12 -150 20 -245 25 -295 7 -65 17 -214 18 -280 1 -44 -3 -70 -12 -80
-9 -9 -10 -15 -3 -18 13 -4 -5 -62 -20 -62 -5 0 -6 -4 -3 -10 3 -5 1 -27 -5
-47 -37 -128 -55 -294 -35 -322 8 -12 6 -13 -7 -8 -22 8 -22 3 -1 -30 12 -17
14 -28 6 -30 -10 -4 -10 -58 1 -165 3 -26 0 -38 -8 -38 -7 0 -13 -6 -13 -14 0
-8 6 -12 14 -9 7 3 13 0 13 -6 0 -6 -5 -11 -10 -11 -6 0 -7 -6 -1 -17 17 -33
31 -98 28 -130 -2 -18 1 -33 6 -33 5 0 6 -7 3 -16 -3 -8 -2 -12 4 -9 6 3 10
-1 10 -9 0 -8 -5 -18 -10 -21 -25 -16 159 -312 316 -510 116 -146 391 -418
533 -528 466 -360 972 -572 1561 -654 175 -24 595 -24 770 0 708 99 1317 394
1818 881 557 542 896 1243 993 2051 18 144 18 576 0 720 -60 502 -232 1019
-458 1374 l-34 54 -57 -8 c-104 -13 -327 -33 -330 -30 -2 2 -6 23 -8 46 -3 24
-7 46 -9 49 -2 3 -7 33 -10 65 -4 33 -11 65 -17 72 -5 6 -11 44 -13 85 -6 102
-10 121 -23 126 -7 2 -12 16 -12 32 0 27 -11 58 -51 147 -10 23 -19 46 -19 51
0 23 -65 95 -139 154 -65 52 -87 64 -107 60 -15 -3 -29 -1 -33 5 -3 5 -35 22
-71 37 -78 35 -76 32 -61 50 17 20 -28 30 -49 11 -23 -21 -47 -20 -30 0 16 19
3 19 -30 0 -29 -17 -40 -18 -40 -7 0 5 18 14 40 21 30 9 40 17 40 32 0 21 0
21 -47 2 -16 -6 -17 12 -2 39 10 18 8 19 -13 13 -12 -5 -29 -17 -37 -27 -7
-11 -20 -17 -28 -14 -8 3 -32 -3 -54 -14 -21 -11 -39 -16 -39 -11 0 5 9 13 20
16 11 4 18 10 15 15 -3 5 8 16 26 25 39 21 33 28 -11 15 -44 -13 -54 -2 -29
30 19 25 19 25 35 5 13 -17 16 -18 24 -5 8 12 10 12 11 -5 1 -11 2 -25 2 -31
0 -7 10 -6 29 5 l28 16 -21 18 c-12 9 -35 17 -53 17 -24 0 -27 3 -16 10 20 13
6 12 -41 -1 -21 -7 -36 -15 -34 -19 3 -5 -2 -11 -11 -14 -8 -3 -12 -2 -9 4 10
16 -22 12 -39 -5 -17 -17 -30 -20 -21 -5 3 6 0 10 -9 10 -8 0 -17 -6 -19 -12
-4 -10 -6 -10 -6 0 -1 7 -16 13 -38 13 -24 1 -29 3 -15 6 12 2 22 9 22 15 0 5
-7 7 -16 4 -9 -3 -34 -9 -56 -12 l-40 -7 28 28 c26 26 27 29 9 35 -17 6 -17 8
6 23 l23 17 -25 0 c-40 0 -42 12 -9 40 l31 27 -108 42 c-59 24 -124 44 -143
46 -19 1 -36 8 -38 14 -2 6 -9 8 -15 4 -17 -11 -51 -9 -60 2 -6 6 -10 6 -14
-2 -2 -7 -12 -13 -21 -13 -8 0 -25 -8 -36 -17 -15 -13 -14 -10 3 10 20 22 21
27 8 27 -10 0 -14 5 -11 15 4 9 0 15 -10 15 -9 0 -16 5 -16 11 0 7 -10 9 -25
7 -13 -3 -22 -1 -19 3 3 5 3 9 0 9 -3 0 -73 14 -155 30 -235 47 -547 69 -786
53z m1005 -247 c0 -2 -8 -10 -17 -17 -16 -13 -17 -12 -4 4 13 16 21 21 21 13z
m-26 -311 c-9 -14 -21 -25 -27 -25 -6 0 0 11 13 25 13 14 25 25 27 25 2 0 -4
-11 -13 -25z m781 -34 c-3 -6 -11 -11 -16 -11 -5 0 -4 6 3 14 14 16 24 13 13
-3z m-112 2 c-7 -2 -19 -2 -25 0 -7 3 -2 5 12 5 14 0 19 -2 13 -5z m192 -13
c-3 -5 -12 -10 -18 -10 -7 0 -6 4 3 10 19 12 23 12 15 0z m-134 -217 c-10 -4
-5 -10 15 -19 16 -7 23 -13 17 -13 -7 -1 -13 -6 -13 -12 0 -6 6 -9 14 -6 8 3
20 -1 26 -9 7 -8 19 -14 26 -14 8 0 11 -6 8 -15 -4 -8 -1 -15 5 -15 6 0 11 -4
11 -9 0 -5 5 -22 11 -38 6 -15 13 -41 14 -57 2 -16 7 -31 11 -35 16 -11 35
-52 29 -61 -3 -5 -1 -11 4 -14 5 -3 7 -20 5 -38 -1 -18 -3 -39 -3 -47 -1 -9
-9 -11 -26 -7 -20 5 -23 3 -18 -11 5 -13 2 -15 -11 -10 -10 4 -15 3 -11 -3 16
-25 -37 -7 -57 20 -14 19 -31 30 -46 30 -18 0 -23 4 -18 15 3 9 -1 18 -8 21
-13 5 -31 49 -28 66 1 4 -3 20 -10 35 -14 35 -18 63 -12 83 5 13 10 50 17 136
1 12 7 19 13 17 7 -2 15 0 19 6 3 6 12 11 18 10 7 0 6 -3 -2 -6z m-1141 -895
c0 4 5 -1 11 -10 6 -11 16 -15 26 -11 10 4 14 2 10 -4 -5 -7 0 -9 14 -6 20 6
20 4 8 -18 -7 -13 -12 -26 -11 -29 1 -3 -6 -6 -15 -6 -30 -3 -47 -8 -62 -22
-7 -7 -21 -10 -29 -7 -9 3 -13 3 -9 -1 4 -4 0 -12 -9 -18 -18 -14 -84 -9 -84
6 0 5 -7 2 -16 -7 -13 -12 -19 -13 -31 -3 -11 9 -16 9 -23 -2 -5 -9 -8 -4 -7
13 1 15 8 27 16 27 7 0 11 6 8 13 -2 6 2 18 9 25 12 11 15 10 20 -2 3 -9 10
-16 16 -16 5 0 6 5 3 11 -12 19 46 62 83 61 19 -1 30 3 27 8 -4 6 3 6 19 0 14
-5 26 -6 26 -2z m89 -102 c-13 -15 -19 -3 -12 24 6 22 7 22 14 4 3 -10 3 -23
-2 -28z m-329 4 c0 -5 -2 -10 -4 -10 -3 0 -8 5 -11 10 -3 6 -1 10 4 10 6 0 11
-4 11 -10z m260 -14 c0 -2 -7 -7 -16 -10 -8 -3 -12 -2 -9 4 6 10 25 14 25 6z
m-260 -16 c0 -5 -2 -10 -4 -10 -3 0 -8 5 -11 10 -3 6 -1 10 4 10 6 0 11 -4 11
-10z m575 -571 c-4 -5 1 -12 10 -15 13 -5 13 -9 3 -22 -11 -13 -10 -14 15 -8
22 5 27 3 27 -13 0 -11 10 -27 22 -35 12 -9 17 -16 10 -16 -8 0 -9 -7 -2 -24
5 -13 6 -27 2 -31 -4 -4 0 -12 9 -18 20 -16 59 -97 59 -125 0 -12 4 -22 10
-22 5 0 9 -16 8 -35 -1 -23 5 -40 16 -48 10 -7 20 -37 27 -77 6 -36 15 -81 21
-100 6 -19 13 -48 15 -65 4 -38 22 -85 41 -107 8 -9 11 -21 8 -27 -4 -5 -2
-12 4 -16 12 -7 57 -104 61 -131 4 -27 -10 -64 -25 -64 -6 0 -28 -8 -48 -18
-19 -10 -54 -18 -76 -18 -22 1 -38 -2 -36 -6 2 -3 -13 -12 -33 -19 -21 -6 -47
-18 -59 -26 -11 -7 -23 -11 -26 -8 -3 4 -49 8 -102 11 -85 4 -104 2 -159 -20
-75 -29 -150 -46 -195 -44 -54 2 -60 29 -37 182 3 21 6 41 7 45 0 3 0 22 -1
42 l-1 36 -62 1 c-34 0 -70 -4 -80 -9 -12 -6 -18 -6 -18 1 0 17 -21 11 -57
-16 -18 -14 -38 -22 -43 -19 -6 3 -7 -1 -4 -9 4 -11 0 -16 -11 -16 -9 0 -14
-4 -10 -9 3 -5 1 -12 -4 -16 -6 -3 -8 -11 -5 -18 2 -7 -6 -24 -18 -37 -13 -14
-22 -28 -21 -32 2 -5 -2 -8 -7 -8 -5 0 -9 -3 -9 -7 3 -20 -2 -33 -13 -33 -7 0
-28 -16 -47 -35 -19 -19 -38 -35 -43 -35 -5 0 -7 -13 -3 -29 7 -31 -17 -91
-35 -91 -6 0 -9 -14 -8 -32 2 -18 -3 -33 -10 -36 -10 -3 -10 -7 0 -20 10 -12
10 -14 1 -8 -7 4 -13 2 -13 -3 0 -6 6 -11 13 -11 9 0 8 -3 -2 -9 -11 -7 -9
-11 7 -20 18 -10 21 -9 16 4 -5 11 -2 13 10 9 9 -3 16 -9 16 -13 0 -13 53 -66
64 -63 6 1 2 -4 -8 -13 -11 -8 -17 -18 -13 -21 3 -4 18 8 33 25 18 22 29 28
34 21 11 -18 77 45 85 81 4 16 10 27 15 24 10 -6 32 20 24 28 -3 3 4 10 15 17
12 6 21 7 21 3 0 -4 5 -2 12 5 7 7 20 12 30 12 10 0 18 5 18 11 0 8 6 7 17 -2
15 -12 16 -12 10 4 -6 15 -4 16 13 7 11 -6 26 -10 33 -9 39 5 66 -3 72 -20 4
-13 19 -22 45 -26 22 -4 42 -11 45 -15 3 -5 19 -15 35 -23 27 -14 31 -13 51 4
12 10 26 19 31 19 5 0 6 5 3 10 -4 6 6 10 23 10 33 0 45 -8 34 -24 -4 -6 -7
-13 -8 -16 -6 -34 -18 -60 -30 -64 -8 -3 -14 -12 -14 -21 0 -8 -4 -15 -10 -15
-5 0 -10 -5 -10 -11 0 -5 5 -7 10 -4 13 8 13 -1 -2 -42 -7 -18 -19 -34 -28
-34 -22 -2 -33 -4 -50 -12 -88 -39 -374 -94 -369 -71 1 5 0 12 -1 17 -4 12 -7
26 -9 37 0 5 -4 9 -8 9 -20 -3 -34 2 -28 10 16 27 -117 5 -136 -22 -4 -5 -18
-10 -32 -10 -14 -1 -23 -5 -21 -9 2 -4 -5 -9 -16 -13 -11 -3 -20 -11 -20 -17
0 -5 -8 -7 -17 -4 -10 4 -14 4 -10 0 4 -4 -2 -14 -13 -21 -11 -8 -18 -18 -15
-23 3 -5 -2 -15 -10 -24 -8 -8 -18 -30 -22 -48 -3 -18 -9 -35 -13 -38 -3 -3
-18 -26 -32 -52 -23 -41 -24 -46 -8 -38 30 16 34 12 9 -10 -18 -14 -20 -19 -9
-20 9 0 21 5 28 12 9 9 12 9 12 0 0 -21 30 -13 76 19 24 16 48 28 53 25 5 -3
11 1 15 9 3 8 15 15 26 15 12 0 18 -4 15 -10 -9 -14 0 -13 43 7 20 9 41 15 45
14 5 -1 11 7 14 18 3 11 13 23 24 26 24 8 95 -29 137 -71 19 -19 38 -34 43
-34 4 0 6 -7 3 -15 -4 -8 -1 -15 5 -15 6 0 11 -10 11 -21 0 -16 -5 -20 -19
-16 -22 5 -46 -7 -46 -24 0 -7 -6 -14 -14 -17 -9 -3 -11 0 -7 9 4 8 0 5 -8 -5
-13 -16 -13 -22 -3 -35 9 -12 9 -13 0 -7 -16 9 -16 1 -2 -25 5 -11 15 -16 21
-13 7 4 8 3 4 -5 -4 -6 -11 -9 -15 -7 -3 3 -7 -4 -7 -15 0 -17 9 -23 29 -20 4
0 7 -6 7 -14 0 -10 14 -17 40 -21 22 -4 40 -11 40 -16 0 -5 4 -7 9 -3 11 6 84
-30 101 -51 7 -7 16 -12 20 -9 15 9 19 -24 5 -35 -8 -7 -12 -16 -9 -21 3 -5
-1 -6 -8 -4 -8 3 -25 -6 -38 -21 l-25 -27 30 19 30 19 -26 -35 c-14 -19 -24
-42 -22 -52 3 -11 -5 -18 -25 -22 -17 -4 -44 -25 -66 -51 -35 -43 -63 -53 -83
-30 -5 4 -2 5 6 0 10 -5 12 -4 7 4 -4 6 -11 9 -14 7 -4 -2 -23 -1 -42 3 -22 5
-49 3 -74 -6 -21 -7 -41 -11 -45 -8 -8 4 -42 12 -116 25 -69 12 -74 13 -127
38 -47 22 -115 80 -111 93 1 4 -13 14 -31 23 -18 9 -39 22 -46 31 -7 8 -17 15
-22 15 -11 0 -27 13 -94 78 -30 29 -59 50 -64 47 -6 -4 -26 10 -45 29 -19 20
-41 36 -48 36 -8 0 -20 12 -28 27 -8 15 -22 36 -32 46 -10 10 -15 22 -12 27 6
9 -8 14 -27 11 -5 0 -8 5 -8 13 0 8 -12 17 -26 20 -21 6 -24 9 -14 21 10 12 9
15 -4 15 -19 0 -21 11 -3 29 10 11 7 13 -16 8 -20 -3 -30 0 -35 12 -3 9 -21
32 -39 51 -18 19 -33 40 -33 46 0 7 -21 40 -46 74 -52 70 -59 90 -70 175 -12
90 -8 152 10 180 9 13 16 29 16 35 0 6 9 21 20 33 11 12 18 27 15 35 -6 15 12
50 39 74 16 15 17 22 8 43 -10 23 -9 26 20 41 19 10 27 19 20 23 -15 9 13 51
34 51 8 0 14 9 14 20 0 10 9 24 20 30 11 6 20 8 20 5 0 -4 12 8 27 27 49 58
167 172 208 200 22 15 55 44 74 63 23 24 40 35 53 32 10 -3 18 -2 18 2 0 12
59 30 66 20 3 -5 10 -6 17 -2 26 16 127 3 127 -16 0 -5 16 -5 35 -1 19 4 35 6
35 3 0 -2 6 -1 12 3 7 5 19 9 28 11 81 13 102 14 115 3 11 -9 15 -9 15 -1 0 6
12 10 28 9 15 -1 39 6 54 16 16 11 35 15 48 11 11 -4 20 -2 20 4 0 6 3 10 8
10 23 -4 42 3 42 15 0 12 13 22 40 31 9 3 44 17 72 28 16 7 22 14 16 18 -6 4
6 15 28 25 22 10 61 41 88 69 28 27 53 49 58 47 7 -2 12 20 9 40 0 4 11 11 25
14 16 4 21 9 14 14 -8 5 -6 10 5 20 8 7 15 21 15 31 0 11 4 19 10 19 5 0 7 6
4 13 -2 7 4 21 15 31 11 10 18 23 15 27 -3 5 1 9 10 9 8 0 27 14 43 30 15 17
36 30 45 30 10 0 18 5 18 11 0 7 11 8 31 4 24 -6 30 -4 24 5 -5 9 -4 11 4 6 6
-4 9 -12 6 -17z m-3465 -2360 c0 -6 -4 -7 -10 -4 -5 3 -10 11 -10 16 0 6 5 7
10 4 6 -3 10 -11 10 -16z m5175 -519 c-3 -5 -1 -10 4 -10 6 0 11 -7 11 -15 0
-12 -3 -12 -20 2 -14 13 -16 19 -7 25 16 10 19 10 12 -2z m-2395 -1260 c-12
-22 -31 -27 -27 -7 2 10 18 22 35 26 1 1 -2 -8 -8 -19z"/>
<path d="M4270 4912 c0 -5 7 -9 15 -9 8 0 15 4 15 9 0 4 -7 8 -15 8 -8 0 -15
-4 -15 -8z"/>
<path d="M4376 4891 c-3 -5 5 -11 19 -13 30 -6 32 -2 6 12 -11 6 -22 6 -25 1z"/>
<path d="M3375 3440 c-8 -13 4 -32 16 -25 12 8 12 35 0 35 -6 0 -13 -4 -16
-10z"/>
<path d="M3735 2950 c3 -5 13 -10 21 -10 8 0 12 5 9 10 -3 6 -13 10 -21 10 -8
0 -12 -4 -9 -10z"/>
<path d="M4458 2813 c7 -3 16 -2 19 1 4 3 -2 6 -13 5 -11 0 -14 -3 -6 -6z"/>
<path d="M4455 2760 c-3 -5 -1 -10 4 -10 6 0 11 5 11 10 0 6 -2 10 -4 10 -3 0
-8 -4 -11 -10z"/>
<path d="M5230 6375 c-11 -13 -10 -14 4 -9 9 3 16 10 16 15 0 13 -6 11 -20 -6z"/>
<path d="M5290 6309 c0 -5 5 -7 10 -4 6 3 10 8 10 11 0 2 -4 4 -10 4 -5 0 -10
-5 -10 -11z"/>
<path d="M5429 6280 c-27 -22 -13 -26 25 -9 14 7 23 16 20 20 -8 14 -20 11
-45 -11z"/>
<path d="M5250 6281 c0 -5 -9 -13 -21 -16 -42 -14 -11 -14 40 0 68 18 75 25
23 25 -23 0 -42 -4 -42 -9z"/>
<path d="M5350 6260 c-12 -8 -11 -10 8 -10 12 0 22 5 22 10 0 13 -11 13 -30 0z"/>
<path d="M5645 6180 c-3 -5 -1 -10 4 -10 6 0 11 5 11 10 0 6 -2 10 -4 10 -3 0
-8 -4 -11 -10z"/>
</g>
</svg>
